<svg fill="#000000" xmlns="http://www.w3.org/2000/svg"  viewBox="0 0 72 72" width="128px" height="128px"><path d="M 13 13 C 9.686 13 7 15.686 7 19 L 7 53 C 7 56.314 9.686 59 13 59 L 42.333984 59 C 42.134984 58.03 42.03125 57.027 42.03125 56 C 42.03125 54.261453 42.347162 52.598337 42.894531 51.044922 C 44.614149 46.392759 48.538436 42.815988 53.404297 41.585938 L 48.21875 36.818359 C 46.27575 35.032359 43.288609 35.036172 41.349609 36.826172 L 32.742188 44.777344 L 27.941406 40.669922 C 25.978406 38.989922 23.082 38.995641 21.125 40.681641 L 15 45.958984 L 15 22 C 15 21.448 15.448 21 16 21 L 56 21 C 56.552 21 57 21.448 57 22 L 57 41.03125 C 59.943 41.03125 62.683 41.896141 65 43.369141 L 65 19 C 65 15.686 62.314 13 59 13 L 13 13 z M 27 24 C 24.791 24 23 25.791 23 28 C 23 30.209 24.791 32 27 32 C 29.209 32 31 30.209 31 28 C 31 25.791 29.209 24 27 24 z M 57 45.03125 C 50.942 45.03125 46.03125 49.942 46.03125 56 C 46.03125 62.058 50.942 66.96875 57 66.96875 C 63.058 66.96875 67.96875 62.058 67.96875 56 C 67.96875 49.942 63.058 45.03125 57 45.03125 z M 57 49.375 C 58.104 49.375 59 50.271 59 51.375 L 59 54 L 61.625 54 C 62.729 54 63.625 54.896 63.625 56 C 63.625 57.104 62.729 58 61.625 58 L 59 58 L 59 60.625 C 59 61.729 58.104 62.625 57 62.625 C 55.896 62.625 55 61.729 55 60.625 L 55 58 L 52.375 58 C 51.271 58 50.375 57.104 50.375 56 C 50.375 54.896 51.271 54 52.375 54 L 55 54 L 55 51.375 C 55 50.271 55.896 49.375 57 49.375 z"/></svg>