<svg width="440" height="398" viewBox="0 0 440 398" fill="none" xmlns="http://www.w3.org/2000/svg">
<circle cx="224" cy="199" r="162.5" stroke="#F0F0F0" stroke-width="25"/>
<circle cx="244" cy="93" r="20" fill="#F0F0F0"/>
<circle cx="147" cy="133" r="20" fill="#F0F0F0"/>
<circle cx="224" cy="219" r="20" fill="#F0F0F0"/>
<circle cx="120" cy="252" r="20" fill="#F0F0F0"/>
<circle cx="214" cy="312" r="20" fill="#F0F0F0"/>
<path d="M349 212C349 223.046 340.046 232 329 232C317.954 232 309 223.046 309 212C309 200.954 317.954 192 329 192C340.046 192 349 200.954 349 212Z" fill="#F0F0F0"/>
<path d="M205 212.5C167.4 200.5 154 168.167 152 153.5M101.5 256C-15.5 256 -19.4999 194.5 57.5 168.5M365.5 114.5C471.5 91.5001 448.5 181.5 346.5 205M233 305C289.5 256 284.5 146 251.5 104.5M220 334C237.2 419.6 308.5 402 322.5 343M279.5 41.5C220 -32 114.5 22.5 114.5 73" stroke="#F0F0F0" stroke-width="10"/>
</svg>
